<mxfile host="drawio-plugin" modified="2022-08-30T05:24:41.930Z" agent="5.0 (Macintosh; Intel Mac OS X 10_15_7) AppleWebKit/537.36 (KHTML, like Gecko) Chrome/98.0.4758.102 Safari/537.36" etag="_rVVNe3rY8uv4v0JcHBw" version="15.5.4" type="embed"><diagram id="t7ZHmKhHsLG-lple6yUp" name="Page-1"><mxGraphModel dx="1018" dy="686" grid="0" gridSize="10" guides="1" tooltips="1" connect="1" arrows="1" fold="1" page="1" pageScale="1" pageWidth="850" pageHeight="1100" math="0" shadow="0"><root><mxCell id="0"/><mxCell id="1" parent="0"/><mxCell id="7" style="edgeStyle=orthogonalEdgeStyle;curved=1;rounded=0;sketch=1;orthogonalLoop=1;jettySize=auto;html=1;exitX=0.5;exitY=1;exitDx=0;exitDy=0;fontSize=15;" parent="1" source="5" target="6" edge="1"><mxGeometry relative="1" as="geometry"/></mxCell><mxCell id="8" value="是" style="edgeLabel;html=1;align=center;verticalAlign=middle;resizable=0;points=[];fontSize=15;" parent="7" vertex="1" connectable="0"><mxGeometry x="-0.1667" y="-2" relative="1" as="geometry"><mxPoint as="offset"/></mxGeometry></mxCell><mxCell id="5" value="&lt;font style=&quot;font-size: 15px&quot;&gt;FactoryBean？&lt;/font&gt;" style="rhombus;whiteSpace=wrap;html=1;fillColor=#fff2cc;strokeColor=#d6b656;sketch=1;rounded=1;" parent="1" vertex="1"><mxGeometry x="276" y="371" width="146" height="73" as="geometry"/></mxCell><mxCell id="10" style="edgeStyle=orthogonalEdgeStyle;curved=1;rounded=0;sketch=1;orthogonalLoop=1;jettySize=auto;html=1;exitX=0.5;exitY=1;exitDx=0;exitDy=0;fontSize=15;entryX=0.5;entryY=0;entryDx=0;entryDy=0;entryPerimeter=0;" parent="1" source="6" target="12" edge="1"><mxGeometry relative="1" as="geometry"><mxPoint x="349" y="650" as="targetPoint"/></mxGeometry></mxCell><mxCell id="11" value="是" style="edgeLabel;html=1;align=center;verticalAlign=middle;resizable=0;points=[];fontSize=15;" parent="10" vertex="1" connectable="0"><mxGeometry x="-0.1831" y="-1" relative="1" as="geometry"><mxPoint as="offset"/></mxGeometry></mxCell><mxCell id="15" style="edgeStyle=orthogonalEdgeStyle;curved=1;rounded=0;sketch=1;orthogonalLoop=1;jettySize=auto;html=1;exitX=1;exitY=0.5;exitDx=0;exitDy=0;fontSize=16;" parent="1" source="6" target="14" edge="1"><mxGeometry relative="1" as="geometry"/></mxCell><mxCell id="22" value="否" style="edgeLabel;html=1;align=center;verticalAlign=middle;resizable=0;points=[];fontSize=16;" parent="15" vertex="1" connectable="0"><mxGeometry x="-0.1337" y="-1" relative="1" as="geometry"><mxPoint as="offset"/></mxGeometry></mxCell><mxCell id="6" value="&lt;span style=&quot;font-size: 15px&quot;&gt;Singleton？&lt;/span&gt;" style="rhombus;whiteSpace=wrap;html=1;fillColor=#fff2cc;strokeColor=#d6b656;sketch=1;rounded=1;" parent="1" vertex="1"><mxGeometry x="276" y="504" width="146" height="73" as="geometry"/></mxCell><mxCell id="26" style="edgeStyle=orthogonalEdgeStyle;rounded=0;sketch=1;orthogonalLoop=1;jettySize=auto;html=1;exitX=1;exitY=0.5;exitDx=0;exitDy=0;exitPerimeter=0;entryX=0.5;entryY=1;entryDx=0;entryDy=0;fontSize=16;" parent="1" source="12" target="14" edge="1"><mxGeometry relative="1" as="geometry"/></mxCell><mxCell id="27" value="不存在" style="edgeLabel;html=1;align=center;verticalAlign=middle;resizable=0;points=[];fontSize=16;" parent="26" vertex="1" connectable="0"><mxGeometry x="-0.512" y="-1" relative="1" as="geometry"><mxPoint x="-1" as="offset"/></mxGeometry></mxCell><mxCell id="30" style="edgeStyle=orthogonalEdgeStyle;rounded=0;sketch=1;orthogonalLoop=1;jettySize=auto;html=1;exitX=0;exitY=0.5;exitDx=0;exitDy=0;exitPerimeter=0;entryX=0;entryY=0.5;entryDx=0;entryDy=0;fontSize=16;" parent="1" source="12" target="16" edge="1"><mxGeometry relative="1" as="geometry"><Array as="points"><mxPoint x="193" y="673"/><mxPoint x="193" y="266"/></Array></mxGeometry></mxCell><mxCell id="31" value="存在" style="edgeLabel;html=1;align=center;verticalAlign=middle;resizable=0;points=[];fontSize=16;" parent="30" vertex="1" connectable="0"><mxGeometry x="-0.85" y="3" relative="1" as="geometry"><mxPoint x="2" y="-3" as="offset"/></mxGeometry></mxCell><mxCell id="12" value="factoryBeanCache" style="shape=cylinder3;whiteSpace=wrap;html=1;boundedLbl=1;backgroundOutline=1;size=15;rounded=1;sketch=1;fontSize=16;fillColor=#ffe6cc;strokeColor=#d79b00;" parent="1" vertex="1"><mxGeometry x="268" y="637" width="162" height="73" as="geometry"/></mxCell><mxCell id="18" style="edgeStyle=orthogonalEdgeStyle;rounded=0;sketch=1;orthogonalLoop=1;jettySize=auto;html=1;exitX=0.5;exitY=0;exitDx=0;exitDy=0;entryX=1;entryY=0.5;entryDx=0;entryDy=0;fontSize=16;" parent="1" source="14" target="16" edge="1"><mxGeometry relative="1" as="geometry"/></mxCell><mxCell id="28" style="edgeStyle=orthogonalEdgeStyle;rounded=0;sketch=1;orthogonalLoop=1;jettySize=auto;html=1;exitX=0.5;exitY=1;exitDx=0;exitDy=0;entryX=0.554;entryY=0.993;entryDx=0;entryDy=0;entryPerimeter=0;fontSize=16;" parent="1" source="14" target="12" edge="1"><mxGeometry relative="1" as="geometry"/></mxCell><mxCell id="29" value="写入缓存" style="edgeLabel;html=1;align=center;verticalAlign=middle;resizable=0;points=[];fontSize=16;" parent="28" vertex="1" connectable="0"><mxGeometry x="0.1854" y="3" relative="1" as="geometry"><mxPoint x="-13" y="-2" as="offset"/></mxGeometry></mxCell><mxCell id="14" value="&lt;span style=&quot;font-size: 16px&quot;&gt;factoryBean.getObject()&lt;/span&gt;" style="rounded=0;whiteSpace=wrap;html=1;sketch=1;fontSize=15;fillColor=#ffe6cc;strokeColor=#d79b00;" parent="1" vertex="1"><mxGeometry x="499" y="520.5" width="200.5" height="40" as="geometry"/></mxCell><mxCell id="17" style="edgeStyle=orthogonalEdgeStyle;curved=1;rounded=0;sketch=1;orthogonalLoop=1;jettySize=auto;html=1;exitX=0.5;exitY=1;exitDx=0;exitDy=0;fontSize=16;" parent="1" source="16" target="5" edge="1"><mxGeometry relative="1" as="geometry"/></mxCell><mxCell id="16" value="" style="rounded=0;whiteSpace=wrap;html=1;sketch=1;fontSize=16;fillColor=#ffe6cc;strokeColor=#d79b00;" parent="1" vertex="1"><mxGeometry x="287" y="236" width="120" height="60" as="geometry"/></mxCell></root></mxGraphModel></diagram></mxfile>